<?xml version="1.0" encoding="UTF-8" standalone="no"?>
<!-- Created with Inkscape (http://www.inkscape.org/) -->

<svg
   width="205.89886mm"
   height="69.38324mm"
   viewBox="0 0 205.89886 69.383241"
   version="1.1"
   id="svg1"
   xml:space="preserve"
   sodipodi:docname="background.svg"
   inkscape:version="1.3.2 (091e20e, 2023-11-25, custom)"
   xmlns:inkscape="http://www.inkscape.org/namespaces/inkscape"
   xmlns:sodipodi="http://sodipodi.sourceforge.net/DTD/sodipodi-0.dtd"
   xmlns="http://www.w3.org/2000/svg"
   xmlns:svg="http://www.w3.org/2000/svg"><sodipodi:namedview
     id="namedview1"
     pagecolor="#505050"
     bordercolor="#eeeeee"
     borderopacity="1"
     inkscape:showpageshadow="0"
     inkscape:pageopacity="0"
     inkscape:pagecheckerboard="0"
     inkscape:deskcolor="#505050"
     inkscape:document-units="mm"
     inkscape:export-bgcolor="#f1f1f1ff"
     inkscape:zoom="0.82305274"
     inkscape:cx="261.83012"
     inkscape:cy="408.84379"
     inkscape:window-width="1920"
     inkscape:window-height="1009"
     inkscape:window-x="-8"
     inkscape:window-y="-8"
     inkscape:window-maximized="1"
     inkscape:current-layer="g1" /><defs
     id="defs1"><clipPath
       clipPathUnits="userSpaceOnUse"
       id="clipPath2"><path
         d="M 0,0 H 2481.25 V 3509.375 H 0 Z"
         transform="scale(0.31999999)"
         clip-rule="evenodd"
         id="path2" /></clipPath><clipPath
       clipPathUnits="userSpaceOnUse"
       id="clipPath4"><path
         d="M 0,0 H 2481.25 V 3509.375 H 0 Z"
         transform="scale(0.31999999)"
         clip-rule="evenodd"
         id="path4" /></clipPath><clipPath
       clipPathUnits="userSpaceOnUse"
       id="clipPath6"><path
         d="M 0,0 H 744.42896 V 766.21777 H 0 Z"
         transform="matrix(-0.62275739,0,0,-0.62275739,463.59864,477.16778)"
         clip-rule="evenodd"
         id="path6" /></clipPath><clipPath
       clipPathUnits="userSpaceOnUse"
       id="clipPath17"><path
         d="m 248.03149,639.94128 c 0,99.1604 80.38541,179.54584 179.54584,179.54584 99.16046,0 179.54584,-80.38544 179.54584,-179.54584 0,-99.1604 -80.38538,-179.54583 -179.54584,-179.54583 -99.16043,0 -179.54584,80.38543 -179.54584,179.54583 z"
         transform="matrix(0,0.71290988,-0.71290988,0,584.22046,-176.8241)"
         id="path17" /></clipPath><clipPath
       clipPathUnits="userSpaceOnUse"
       id="clipPath18"><path
         d="M 248.03149,460.39545 H 607.12316 V 819.48712 H 248.03149 Z"
         transform="matrix(0.31999999,0,0,0.31999999,0,10.439975)"
         id="path18" /></clipPath><clipPath
       clipPathUnits="userSpaceOnUse"
       id="clipPath19"><path
         d="M 0,0 H 2481.25 V 3509.375 H 0 Z"
         transform="matrix(0.31999999,0,0,0.31999999,0,10.439975)"
         id="path19" /></clipPath><clipPath
       clipPathUnits="userSpaceOnUse"
       id="clipPath22"><path
         d="M 0,0 H 2481.25 V 3509.375 H 0 Z"
         transform="matrix(0.31999999,0,0,0.31999999,0,10.439975)"
         id="path22" /></clipPath><clipPath
       clipPathUnits="userSpaceOnUse"
       id="clipPath24"><path
         d="m 1441.2513,0 h 990.6252 v 712.98578 h -990.6252 z"
         transform="matrix(0.82290937,0,0,0.82290937,-1186.0192,307.78202)"
         clip-rule="evenodd"
         id="path24" /></clipPath><clipPath
       clipPathUnits="userSpaceOnUse"
       id="clipPath26"><path
         d="m 1441.2513,0 h 990.6252 v 712.98578 h -990.6252 z"
         transform="matrix(0.82290937,0,0,0.82290937,-1186.0192,307.78202)"
         clip-rule="evenodd"
         id="path26" /></clipPath><clipPath
       clipPathUnits="userSpaceOnUse"
       id="clipPath28"><path
         d="m 1441.2513,0 h 990.6252 v 712.98578 h -990.6252 z"
         transform="matrix(0.82290937,0,0,0.82290937,-1186.0192,307.78202)"
         clip-rule="evenodd"
         id="path28" /></clipPath><clipPath
       clipPathUnits="userSpaceOnUse"
       id="clipPath30"><path
         d="m 1441.2513,0 h 990.6252 v 712.98578 h -990.6252 z"
         transform="matrix(0.82290937,0,0,0.82290937,-1186.0192,307.78202)"
         clip-rule="evenodd"
         id="path30" /></clipPath><clipPath
       clipPathUnits="userSpaceOnUse"
       id="clipPath32"><path
         d="m 1441.2513,0 h 990.6252 v 712.98578 h -990.6252 z"
         transform="matrix(0.82290937,0,0,0.82290937,-1186.0192,307.78202)"
         clip-rule="evenodd"
         id="path32" /></clipPath><clipPath
       clipPathUnits="userSpaceOnUse"
       id="clipPath34"><path
         d="m 2108.3965,124.21536 h 323.48 v 168.91287 h -323.48 z"
         transform="matrix(0.82290937,0,0,0.82290937,-1186.0192,307.78202)"
         clip-rule="evenodd"
         id="path34" /></clipPath><clipPath
       clipPathUnits="userSpaceOnUse"
       id="clipPath36"><path
         d="m 1441.2513,0 h 990.6252 v 712.98578 h -990.6252 z"
         transform="matrix(0.82290937,0,0,0.82290937,-1186.0192,307.78202)"
         clip-rule="evenodd"
         id="path36" /></clipPath><clipPath
       clipPathUnits="userSpaceOnUse"
       id="clipPath38"><path
         d="m 1441.2513,0 h 990.6252 v 712.98578 h -990.6252 z"
         transform="matrix(0.82290937,0,0,0.82290937,-1186.0192,307.78202)"
         clip-rule="evenodd"
         id="path38" /></clipPath><clipPath
       clipPathUnits="userSpaceOnUse"
       id="clipPath40"><path
         d="m 1441.2513,0 h 990.6252 v 712.98578 h -990.6252 z"
         transform="matrix(0.82290937,0,0,0.82290937,-1186.0192,307.78202)"
         clip-rule="evenodd"
         id="path40" /></clipPath><clipPath
       clipPathUnits="userSpaceOnUse"
       id="clipPath42"><path
         d="m 1729.2539,532.52277 h 174.9889 v 180.46301 h -174.9889 z"
         transform="matrix(0.82290937,0,0,0.82290937,-1186.0192,307.78202)"
         clip-rule="evenodd"
         id="path42" /></clipPath></defs><g
     id="g1"
     transform="matrix(0.26458333,0,0,0.26458334,3.0185048e-6,-2.7622433)"><path
       id="path1"
       d="M 0,0 H 794 V 1123 H 0 Z"
       style="fill:#ffffff;fill-opacity:1;fill-rule:nonzero;stroke:none"
       transform="translate(0,10.439975)"
       clip-path="url(#clipPath2)" /><path
       id="path5"
       d="M 500,0 C 223.858,0 0.002,223.856 0,499.99701 h 500 z"
       style="fill:#9774c3;fill-opacity:1;fill-rule:nonzero;stroke:none"
       transform="matrix(-0.51384374,0,0,-0.51384374,238.21726,255.62965)"
       clip-path="url(#clipPath6)"
       inkscape:export-filename="background.svg"
       inkscape:export-xdpi="600"
       inkscape:export-ydpi="600" /><g
       id="g22"
       clip-path="url(#clipPath22)"><g
         clip-path="url(#clipPath19)"
         id="g21"><g
           clip-path="url(#clipPath18)"
           id="g20"><path
             d="M 0,0 H 256 V 256 H 0 Z"
             style="fill:#e6dbcd;fill-opacity:1;fill-rule:nonzero;stroke:none"
             transform="matrix(0,-0.44886457,0.44886457,0,79.370073,272.67584)"
             clip-path="url(#clipPath17)"
             id="path20" /></g></g></g><path
       id="path23"
       d="M 96.652344,696.26563 H 86.789063 V 0.00390625 h 9.863281 V 696.26563"
       style="fill:#b1b1b1;fill-opacity:1;fill-rule:nonzero;stroke:none"
       transform="matrix(0.38886419,0,0,0.38886419,461.20041,-109.24543)"
       clip-path="url(#clipPath24)" /><path
       id="path25"
       d="m 127.15234,490.51172 -0.5,51.83594 -40.843746,-31.92578 -49.453125,15.54687 17.742187,-48.71094 -30.066406,-42.23047 51.808594,1.82422 30.871096,-41.64453 14.27734,49.83594 49.14844,16.48828 -42.98438,28.98047"
       style="fill:#ffdd00;fill-opacity:1;fill-rule:nonzero;stroke:none"
       transform="matrix(0.38886419,0,0,0.38886419,461.20041,-109.24543)"
       clip-path="url(#clipPath26)" /><path
       id="path27"
       d="m 31.039063,694.82031 c 0.1875,0 0.371093,0.0274 0.5625,0.0312 3.628906,-26.65234 26.417968,-47.20703 54.0625,-47.20703 24.726567,0 45.589847,16.4336 52.324217,38.96875 3.46484,-1.10937 7.15625,-1.72265 10.99219,-1.72265 17.0664,0 31.32422,11.88281 35.03516,27.8164 1.51562,-0.32422 3.08203,-0.5039 4.69531,-0.5039 12.34375,0 22.34765,10.00781 22.34765,22.34765 0,12.34375 -10.0039,22.34766 -22.34765,22.34766 -6.87891,0 -148.570315,0 -157.671877,0 C 13.894531,756.89844 0,743.00391 0,725.85938 0,708.71875 13.894531,694.82031 31.039063,694.82031"
       style="fill:#9774c3;fill-opacity:1;fill-rule:nonzero;stroke:none"
       transform="matrix(0.38886419,0,0,0.38886419,461.20041,-109.24543)"
       clip-path="url(#clipPath28)" /><path
       id="path29"
       d="m 684.86719,782.06641 h -9.86328 V 0.00390625 h 9.86328 V 782.06641"
       style="fill:#b1b1b1;fill-opacity:1;fill-rule:nonzero;stroke:none"
       transform="matrix(0.38886419,0,0,0.38886419,461.20041,-109.24543)"
       clip-path="url(#clipPath30)" /><path
       id="path31"
       d="m 649.35547,787.42578 -44.40625,-13.80469 37.96875,-26.85156 -0.59375,-46.5 37.26953,27.81641 44.03906,-14.9375 -14.9375,44.03906 27.81641,37.26953 -46.5,-0.59375 -26.85156,37.96875 -13.80469,-44.40625"
       style="fill:#ffdd00;fill-opacity:1;fill-rule:nonzero;stroke:none"
       transform="matrix(0.38886419,0,0,0.38886419,461.20041,-109.24543)"
       clip-path="url(#clipPath32)" /><path
       id="path33"
       d="m 777.10938,469.95703 c -0.23829,0 -0.47266,0.0312 -0.71094,0.0352 -4.58985,-33.70703 -33.41406,-59.70703 -68.37891,-59.70703 -31.27344,0 -57.66015,20.78906 -66.17969,49.28906 -4.38671,-1.40234 -9.05468,-2.17969 -13.90625,-2.17969 -21.58203,0 -39.61718,15.03125 -44.30859,35.1836 -1.91797,-0.41016 -3.90234,-0.63672 -5.94141,-0.63672 -15.60937,0 -28.26171,12.65625 -28.26171,28.26562 0,15.60938 12.65234,28.26563 28.26171,28.26563 8.69922,0 187.91407,0 199.42579,0 21.67968,0 39.25781,-17.57813 39.25781,-39.25782 0,-21.68359 -17.57813,-39.25781 -39.25781,-39.25781"
       style="fill:#9774c3;fill-opacity:1;fill-rule:nonzero;stroke:none"
       transform="matrix(0.38886419,0,0,0.38886419,461.20041,-109.24543)"
       clip-path="url(#clipPath34)" /><path
       id="path35"
       d="m 406.14453,604.55078 h -9.86328 V 0.00390625 h 9.86328 V 604.55078"
       style="fill:#b1b1b1;fill-opacity:1;fill-rule:nonzero;stroke:none"
       transform="matrix(0.38886419,0,0,0.38886419,461.20041,-109.24543)"
       clip-path="url(#clipPath36)" /><path
       id="path37"
       d="m 546.88281,619.96875 c -49.78515,22.09375 -108.05859,-0.35156 -130.15625,-50.13672 -22.09375,-49.78515 0.35157,-108.05859 50.13672,-130.15625 1.27344,-0.5664 2.5586,-1.08203 3.84375,-1.58984 -20.55469,-2.80078 -42.10937,-0.12891 -62.46094,8.90234 -58.41796,25.92969 -84.7539,94.30078 -58.82812,152.71875 25.92969,58.41406 94.30078,84.75 152.71875,58.82422 20.34766,-9.03125 36.79297,-23.22656 48.50391,-40.34766 -1.23829,0.61329 -2.48438,1.21875 -3.75782,1.78516"
       style="fill:#ffdd00;fill-opacity:1;fill-rule:nonzero;stroke:none"
       transform="matrix(0.38886419,0,0,0.38886419,461.20041,-109.24543)"
       clip-path="url(#clipPath38)" /><path
       id="path39"
       d="M 300.80078,806.75781 H 290.9375 V 0.00390625 h 9.86328 V 806.75781"
       style="fill:#b1b1b1;fill-opacity:1;fill-rule:nonzero;stroke:none"
       transform="matrix(0.38886419,0,0,0.38886419,461.20041,-109.24543)"
       clip-path="url(#clipPath40)" /><path
       id="path41"
       d="m 333.08203,844.02344 -8.93359,51.0664 -35.09766,-38.15234 -51.32422,7.28516 25.4336,-45.16797 -22.78907,-46.5625 50.82032,10.23437 37.24218,-36.0625 5.97266,51.4961 45.80469,24.27343 -47.12891,21.58985"
       style="fill:#ffdd00;fill-opacity:1;fill-rule:nonzero;stroke:none"
       transform="matrix(0.38886419,0,0,0.38886419,461.20041,-109.24543)"
       clip-path="url(#clipPath42)" /></g></svg>
